<svg id="Layer_1" data-name="Layer 1" xmlns="http://www.w3.org/2000/svg" viewBox="0 0 508 508"><title>Amark</title><circle cx="254" cy="254" r="254" fill="#0f8cfa"/><path d="M122.8,102.4V405.2a16.47,16.47,0,0,0,16.4,16.4H316V369.2a16.22,16.22,0,0,1,16.4-16.4h52.4V102.4A16.47,16.47,0,0,0,368.4,86H139.2C130,86.4,122.8,93.6,122.8,102.4Z" fill="#fff"/><path d="M316,421.6l68.8-68.8h-52a16.22,16.22,0,0,0-16.4,16.4v52.4Z" fill="#e6e9ee"/><path d="M259.6,297.2l-10.8-25.6H199.2l-10.8,25.6h-28l50.8-118h25.6l50.8,118ZM224,214.4l-14.8,34.4h29.6Z" fill="#0f8cfa"/><path d="M309.2,239.2V216.8H287.6V201.6h21.6V179.2H326v22.4h21.6v15.2H326v22.4Z" fill="#0f8cfa"/></svg>