<svg id="Layer_1" data-name="Layer 1" xmlns="http://www.w3.org/2000/svg" viewBox="0 0 508 508"><title>corrige</title><circle cx="254" cy="254" r="254" fill="#5f76ff"/><path d="M256.8,177.6h-100V297.2c64.4-17.2,100.4,24,100.4,24s36-41.2,100.4-24V177.6Z" fill="#2b3b4e"/><polygon points="252.8 349.2 233.2 349.2 233.2 398 252.8 381.6 272.4 398 272.4 349.2 252.8 349.2" fill="#f1543f"/><path d="M418.8,277.6a1278.07,1278.07,0,0,1-331.6,0h0v96.8h0a1278.07,1278.07,0,0,1,331.6,0h0V277.6Z" fill="#e6e9ee"/><path d="M275.6,288.4V364H230.8V288.4C245.6,288.8,260.4,288.8,275.6,288.4Z" fill="#ff7058"/><polygon points="409.2 304 368 304 376.8 269.2 400.4 269.2 409.2 304" fill="#f9b54c"/><rect x="384.8" y="177.6" width="8" height="103.2" fill="#ff7058"/><polygon points="256.8 110 92.8 177.6 256.8 244.8 420.8 177.6 256.8 110" fill="#324a5e"/><circle cx="388.8" cy="269.2" r="16.4" fill="#ffd05b"/></svg>